<svg width="32" height="31" viewBox="0 0 32 31" fill="none" xmlns="http://www.w3.org/2000/svg">
<path d="M14.9109 21.2415L14.6381 27.9289L14.6018 28.3287L6.96448 27.8017C6.52806 27.7653 6.12195 27.5745 5.74615 27.2292C5.37035 26.884 5.08546 26.4872 4.8915 26.0389C4.75815 25.7118 4.67026 25.3787 4.62783 25.0395C4.5854 24.7003 4.60965 24.3065 4.70057 23.8583C4.79149 23.41 4.86422 23.0769 4.91878 22.8588C4.97333 22.6407 5.10365 22.253 5.30973 21.6958C5.51582 21.1385 5.63098 20.8174 5.65523 20.7326C6.6008 20.878 9.68602 21.0476 14.9109 21.2415ZM7.87368 10.5925L11.1468 17.4798L8.47375 15.8079C7.71002 16.6802 7.03418 17.5555 6.44623 18.4338C5.85828 19.3122 5.41884 20.0693 5.12789 20.7054C4.83695 21.3414 4.59753 21.9138 4.40962 22.4227C4.22172 22.9315 4.10959 23.3131 4.07322 23.5675L4.00048 23.9491L0.545521 17.4616C0.339435 17.1466 0.230331 16.8074 0.218208 16.444C0.206086 16.0805 0.242454 15.7958 0.327312 15.5899L0.472784 15.2627C0.897078 14.4995 1.58807 13.3607 2.54576 11.8463L0 10.2835L7.87368 10.5925ZM30.2582 19.9876L26.8396 26.5114C26.6941 26.8628 26.4729 27.1444 26.1759 27.3564C25.8789 27.5685 25.6152 27.6926 25.3849 27.729L25.0576 27.8017C24.1969 27.8865 22.8694 27.9592 21.0753 28.0197L21.2207 31L17.0384 24.3307L20.8753 17.7524L21.0025 20.8962C23.0634 21.09 24.7788 21.1203 26.1486 20.987C27.5185 20.8538 28.5489 20.6539 29.2399 20.3874L30.2582 19.9876ZM15.9838 3.19631C15.414 3.95955 13.8077 6.59454 11.165 11.1013L5.40065 7.70305L5.05516 7.48499L9.14656 1.01563C9.38901 0.64007 9.75269 0.367485 10.2376 0.197877C10.7225 0.0282681 11.2074 -0.0323064 11.6923 0.0161532C11.9833 0.040383 12.2772 0.113072 12.5742 0.234221C12.8713 0.35537 13.1258 0.482577 13.338 0.615841C13.5501 0.749104 13.8017 0.949 14.0926 1.21553C14.3836 1.48206 14.6018 1.69104 14.7472 1.84247C14.8927 1.99391 15.1109 2.23318 15.4019 2.56028C15.6928 2.88738 15.8868 3.09939 15.9838 3.19631ZM27.8943 8.77522L31.7493 15.3718C31.9675 15.82 32.0433 16.2804 31.9766 16.7529C31.9099 17.2254 31.7432 17.6736 31.4765 18.0976C31.3189 18.3399 31.1189 18.5641 30.8765 18.77C30.634 18.976 30.4037 19.1456 30.1855 19.2788C29.9673 19.4121 29.6733 19.5454 29.3035 19.6786C28.9338 19.8119 28.6489 19.9088 28.4489 19.9694C28.2489 20.03 27.9367 20.1148 27.5124 20.2238C27.0881 20.3328 26.8093 20.4055 26.676 20.4419C26.2638 19.5696 24.6575 16.9285 21.8572 12.5187L27.5488 8.97512L27.8943 8.77522ZM25.294 4.66827L27.8761 3.15997L23.8756 9.93825L16.2565 9.57481L19.0023 8.01198C18.5901 6.93376 18.1355 5.92822 17.6385 4.99538C17.1415 4.06253 16.6838 3.31443 16.2656 2.75109C15.8474 2.18775 15.4564 1.70315 15.0927 1.2973C14.7291 0.891454 14.4442 0.609783 14.2381 0.452289L13.929 0.216049L21.2935 0.234221C21.6693 0.197877 22.0208 0.26148 22.3482 0.425031C22.6755 0.588582 22.9119 0.761219 23.0573 0.942943L23.2574 1.21553C23.7301 1.95454 24.409 3.10545 25.294 4.66827Z" fill="#DD3731"/>
</svg>
