<svg fill="none" height="395" viewBox="0 0 962 395" width="962" xmlns="http://www.w3.org/2000/svg" xmlns:xlink="http://www.w3.org/1999/xlink"><clipPath id="a"><rect height="394.69" rx="50" width="962"/></clipPath><g clip-path="url(#a)"><path d="m828.501-173.52c12.433-21.79 40.308-29.167 61.892-16.379l55.519 32.896c14.138 8.376 22.571 23.807 21.986 40.23l-1.769 49.6449c-.742 20.8451 12.967 39.457 33.094 44.9294l77.347 21.02904c22.32 6.07021 36.38 28.11096 32.48 50.91526l-15.13 88.2914c-1.17 6.807-3.89 13.253-7.95 18.837l-56.73 77.953-30.197 46.263c-7.001 10.726-18.249 17.951-30.914 19.859l-125.452 18.897c-28.775 4.334-54.01-19.427-51.413-48.41l6.493-72.47c1.329-14.835-4.785-29.365-16.322-38.787l-118.733-96.9614c-24.528-20.0308-21.173-58.47583 6.455-73.9545l86.821-48.6426c7.117-3.9869 13.012-9.8368 17.055-16.9217z" fill="#ffb8b2"/><path d="m828.501-173.52c12.433-21.79 40.308-29.167 61.892-16.379l55.519 32.896c14.138 8.376 22.571 23.807 21.986 40.23l-1.769 49.6449c-.742 20.8451 12.967 39.457 33.094 44.9294l77.347 21.02904c22.32 6.07021 36.38 28.11096 32.48 50.91526l-15.13 88.2914c-1.17 6.807-3.89 13.253-7.95 18.837l-56.73 77.953-30.197 46.263c-7.001 10.726-18.249 17.951-30.914 19.859l-125.452 18.897c-28.775 4.334-54.01-19.427-51.413-48.41l6.493-72.47c1.329-14.835-4.785-29.365-16.322-38.787l-118.733-96.9614c-24.528-20.0308-21.173-58.47583 6.455-73.9545l86.821-48.6426c7.117-3.9869 13.012-9.8368 17.055-16.9217z" fill="#ffb8b2"/><path d="m306.589 316.017c17.959 10.282 26.13 31.835 19.502 51.439l-22.055 65.227c-4.665 13.797-15.955 24.324-30.044 28.014l-65.242 17.085c-19.474 5.1-32.864 22.952-32.308 43.075l2.613 94.687c.614 22.234-15.719 41.315-37.781 44.138l-107.7877 13.793c-6.3744.815-12.8503.202-18.9581-1.797l-91.4184-29.911c-7.9039-2.587-14.8957-7.394-20.1393-13.849l-135.0965-166.298c-17.85-21.973-10.156-54.883 15.586-66.664l112.291-51.391c13.4124-6.139 22.7768-18.684 24.8478-33.288l28.9043-203.827c2.995-21.1193 20.927-36.9101 42.25571-37.21l74.64159-1.0492c15.2542-.2145 29.4954 7.6155 37.4866 20.6108l26.808 43.5944c8.48 13.789 8.558 31.157.203 45.022l-12.105 20.089c-11.922 19.786-6.21 45.447 12.979 58.307l9.198 6.165c2.348 1.574 4.844 2.913 7.452 4l48.085 20.036c5.277 2.198 10.936 3.33 16.652 3.33h35.325c7.546 0 14.961 1.972 21.51 5.722z" fill="#ffa238"/></g><rect height="393.69" rx="49.5" stroke="#dba177" width="961" x=".5" y=".5"/></svg>