<svg width="242" height="261" viewBox="0 0 242 261" fill="none" xmlns="http://www.w3.org/2000/svg">
<g clip-path="url(#clip0_37_45)">
<path d="M89.8605 -141.592C100.361 -140.401 109.058 -132.894 111.77 -122.679L125.909 -69.4124C128.233 -60.6536 125.766 -51.318 119.417 -44.8521L103.663 -28.8093C91.5133 -16.436 94.8818 4.17677 110.339 12.0386L162.88 38.7626C169.07 41.9113 173.72 47.435 175.767 54.0719L188.98 96.921C192.512 108.373 187.645 120.745 177.257 126.722L98.697 171.925C96.9836 172.911 95.162 173.696 93.2684 174.263L-3.0945 203.151C-19.469 208.06 -35.9746 195.886 -36.1204 178.792L-36.4419 141.11C-36.5067 133.509 -39.9383 126.328 -45.8116 121.503L-121.876 59.0123C-130.404 52.0059 -133.496 40.3306 -129.554 30.0214L-111.348 -17.5862C-108.855 -24.1044 -109.125 -31.3567 -112.095 -37.6717L-187.905 -198.856C-195.923 -215.902 -183.452 -235.488 -164.614 -235.435L-121.428 -235.313C-116.432 -235.299 -111.549 -233.827 -107.378 -231.077L-65.9732 -203.781C-59.2617 -199.356 -55.0117 -192.042 -54.4911 -184.02L-52.7264 -156.829C-51.9668 -145.125 -43.368 -135.426 -31.8395 -133.269L-18.7501 -130.821C-17.0236 -130.498 -15.2685 -130.353 -13.5123 -130.388L17.4408 -131.016C21.3909 -131.096 25.2691 -132.087 28.7732 -133.912L44.8513 -142.285C49.3834 -144.646 54.5171 -145.599 59.5944 -145.023L89.8605 -141.592Z" fill="#5B58F9"/>
</g>
<rect x="0.5" y="0.5" width="241" height="260" rx="49.5" stroke="#5B58F9"/>
<defs>
<clipPath id="clip0_37_45">
<rect width="242" height="261" rx="50" fill="white"/>
</clipPath>
</defs>
</svg>
