<svg width="242" height="261" viewBox="0 0 242 261" fill="none" xmlns="http://www.w3.org/2000/svg">
<g clip-path="url(#clip0_37_49)">
<path d="M-26.3986 388.554C-37.2717 387.311 -46.1603 379.309 -48.534 368.626L-59.3476 319.959C-61.2948 311.195 -58.5202 302.051 -52.0314 295.847L-25.7722 270.741C-17.1995 262.545 -15.3615 249.541 -21.3268 239.29L-59.3218 173.997C-64.2019 165.611 -63.9341 155.189 -58.6298 147.064L-26.3478 97.6185C-22.1097 91.1272 -15.1641 86.9 -7.45136 86.1178L55.7119 79.7125C63.2964 78.9433 70.8302 81.5866 76.2715 86.9258L187.386 195.956C194.978 203.406 197.187 214.767 192.939 224.518L173.198 269.832C170.369 276.328 170.351 283.705 173.149 290.214L238.731 442.767C246.032 459.749 233.522 478.647 215.037 478.559L173.306 478.362C168.25 478.338 163.313 476.821 159.116 474.001L121.677 448.843C114.725 444.171 110.49 436.401 110.333 428.027L109.904 405.094C109.676 392.933 100.941 382.603 88.9866 380.357L78.1609 378.324C76.4472 378.002 74.7051 377.855 72.9617 377.887L42.936 378.427C39.1157 378.496 35.359 379.417 31.9402 381.123L15.7673 389.195C11.3235 391.412 6.33154 392.293 1.39716 391.729L-26.3986 388.554Z" fill="#DBA177"/>
</g>
<rect x="0.442159" y="0.442159" width="241.116" height="260.116" rx="49.5578" stroke="#DBA177" stroke-width="0.884319"/>
<defs>
<clipPath id="clip0_37_49">
<rect width="242" height="261" rx="50" fill="white"/>
</clipPath>
</defs>
</svg>
