<svg width="242" height="261" viewBox="0 0 242 261" fill="none" xmlns="http://www.w3.org/2000/svg">
<g clip-path="url(#clip0_37_32)">
<path d="M308.949 345.354C303.958 355.093 293.339 360.596 282.504 359.056L233.146 352.044C224.258 350.781 216.676 344.965 213.154 336.707L198.9 303.29C194.246 292.381 182.722 286.082 171.027 288.057L96.5378 300.632C86.9705 302.247 77.3103 298.327 71.5734 290.502L36.6585 242.879C32.0748 236.627 30.5635 228.638 32.5468 221.144L48.7889 159.769C50.7392 152.4 55.8656 146.279 62.7787 143.065L203.948 77.4498C213.593 72.9665 225.005 74.8991 232.636 82.3083L268.099 116.738C273.183 121.674 280.081 124.288 287.159 123.96L453.034 116.285C471.499 115.43 484.782 133.792 478.193 151.063L463.316 190.053C461.514 194.777 458.356 198.864 454.238 201.799L417.51 227.984C410.69 232.847 401.926 234.074 394.033 231.273L372.417 223.601C360.955 219.533 348.211 224.072 341.9 234.47L336.185 243.887C335.281 245.378 334.53 246.957 333.946 248.599L323.881 276.893C322.601 280.493 322.14 284.334 322.533 288.134L324.394 306.113C324.905 311.053 323.972 316.036 321.707 320.456L308.949 345.354Z" fill="#DBA177"/>
</g>
<rect x="0.5" y="0.5" width="241" height="260" rx="49.5" stroke="#DBA177"/>
<defs>
<clipPath id="clip0_37_32">
<rect width="242" height="261" rx="50" fill="white"/>
</clipPath>
</defs>
</svg>
