<svg width="243" height="262" viewBox="0 0 243 262" fill="none" xmlns="http://www.w3.org/2000/svg">
<g clip-path="url(#clip0_37_41)">
<path d="M-91.294 -56.4781C-89.6974 -67.3049 -81.4096 -75.9274 -70.6544 -77.9511L-21.66 -87.1698C-12.8375 -88.8298 -3.78895 -85.7582 2.19977 -79.0703L26.4352 -52.0054C34.3473 -43.1696 47.2841 -40.908 57.7246 -46.5354L124.223 -82.3782C132.764 -86.9819 143.172 -86.374 151.119 -80.8072L199.484 -46.9279C205.834 -42.4802 209.832 -35.4003 210.362 -27.6661L213.966 24.9339C214.854 37.9059 205.899 49.4922 193.122 51.902L158.131 58.5012C150.702 59.9025 144.268 64.5093 140.548 71.0917L93.205 154.868C86.5799 166.592 72.0192 171.199 59.8561 165.421L20.8469 146.889C14.4471 143.849 7.07493 143.59 0.477727 146.174L-154.135 206.74C-171.347 213.483 -189.826 200.363 -189.135 181.89L-187.575 140.188C-187.386 135.135 -185.709 130.25 -182.753 126.148L-156.386 89.5498C-151.49 82.7541 -143.585 78.7757 -135.21 78.8922L-112.276 79.2114C-100.114 79.3806 -89.5044 70.9876 -86.8696 59.1132L-84.4835 48.3597C-84.1058 46.6574 -83.9026 44.9211 -83.8771 43.1776L-83.437 13.1502C-83.381 9.32969 -84.179 5.5449 -85.7726 2.07219L-93.3115 -14.3556C-95.383 -18.8694 -96.0999 -23.8875 -95.3754 -28.8008L-91.294 -56.4781Z" fill="#FFA238"/>
</g>
<rect x="242.156" y="260.501" width="241" height="260" rx="49.5" transform="rotate(179.856 242.156 260.501)" stroke="#FFA238"/>
<defs>
<clipPath id="clip0_37_41">
<rect x="242.657" y="260.999" width="242" height="261" rx="50" transform="rotate(179.856 242.657 260.999)" fill="white"/>
</clipPath>
</defs>
</svg>
