<svg width="244" height="263" viewBox="0 0 244 263" fill="none" xmlns="http://www.w3.org/2000/svg">
<g clip-path="url(#clip0_23_206)">
<path d="M-90.1941 -56.268C-88.5728 -67.0912 -80.2652 -75.6947 -69.5054 -77.6938L-20.4901 -86.8005C-11.6638 -88.4404 -2.62232 -85.3481 3.3511 -78.6465L27.5247 -51.5263C35.4165 -42.6725 48.3481 -40.3813 58.8014 -45.9849L125.382 -81.6756C133.934 -86.2598 144.339 -85.628 152.274 -80.0432L200.562 -46.0534C206.901 -41.5912 210.883 -34.5022 211.395 -26.7668L214.879 25.8413C215.738 38.8153 206.757 50.3811 193.974 52.7617L158.968 59.281C151.535 60.6652 145.091 65.2573 141.356 71.8312L93.8215 155.5C87.1697 167.208 72.5984 171.782 60.4485 165.976L21.4818 147.355C15.089 144.3 7.71741 144.024 1.11433 146.593L-153.637 206.806C-170.864 213.509 -189.312 200.347 -188.579 181.876L-186.925 140.177C-186.724 135.125 -185.035 130.244 -182.07 126.148L-155.62 89.6107C-150.708 82.8262 -142.794 78.8659 -134.42 79.0015L-111.486 79.3731C-99.3246 79.5701 -88.6957 71.2014 -86.0338 59.3331L-83.6232 48.585C-83.2416 46.8836 -83.0344 45.1477 -83.0049 43.4043L-82.4962 13.378C-82.4315 9.55763 -83.2208 5.77102 -84.8065 2.29468L-92.3078 -14.1503C-94.369 -18.6689 -95.0745 -23.6885 -94.3387 -28.6002L-90.1941 -56.268Z" fill="#FFB8B2"/>
<path d="M60.6641 165.525L21.6974 146.904C15.18 143.789 7.66478 143.508 0.933017 146.127L-153.818 206.34C-170.709 212.913 -188.799 200.007 -188.08 181.896L-186.425 140.197C-186.228 135.243 -184.572 130.458 -181.665 126.442L-155.215 89.9039C-150.399 83.2516 -142.639 79.3684 -134.428 79.5015L-111.494 79.873C-99.0958 80.0739 -88.2597 71.5421 -85.546 59.4425L-83.1353 48.6944C-82.7463 46.9599 -82.5351 45.1902 -82.505 43.4127L-81.9962 13.3865C-81.9303 9.49165 -82.735 5.63125 -84.3516 2.08717L-91.8529 -14.3578C-93.8739 -18.7883 -94.5656 -23.7102 -93.8442 -28.5261L-89.6996 -56.194C-88.1099 -66.8062 -79.9642 -75.2421 -69.4141 -77.2022L-20.3988 -86.309C-11.7445 -87.9169 -2.87916 -84.8848 2.97786 -78.3139L27.1514 -51.1936C35.197 -42.1672 48.3807 -39.8315 59.0377 -45.5442L125.618 -81.235C134.003 -85.7297 144.206 -85.1104 151.986 -79.6343L200.274 -45.6446C206.49 -41.2693 210.394 -34.3184 210.896 -26.7338L214.38 25.8743C215.222 38.5955 206.416 49.9359 193.882 52.2701L158.876 58.7894C151.299 60.2007 144.729 64.8822 140.921 71.5842L93.3868 155.253C86.8646 166.733 72.5773 171.218 60.6641 165.525Z" stroke="#FFB8B2" stroke-opacity="0.6"/>
</g>
<rect x="242.531" y="261.472" width="241" height="260" rx="49.5" transform="rotate(179.986 242.531 261.472)" stroke="#FFB8B2"/>
<defs>
<clipPath id="clip0_23_206">
<rect x="243.031" y="261.971" width="242" height="261" rx="50" transform="rotate(179.986 243.031 261.971)" fill="white"/>
</clipPath>
</defs>
</svg>
