<svg width="242" height="261" viewBox="0 0 242 261" fill="none" xmlns="http://www.w3.org/2000/svg">
<g clip-path="url(#clip0_37_36)">
<path d="M333.15 318.318C331.526 329.141 323.216 337.743 312.456 339.739L263.439 348.834C254.612 350.472 245.571 347.378 239.599 340.675L215.432 313.549C207.542 304.693 194.611 302.399 184.157 308L117.568 343.675C109.015 348.257 98.6093 347.623 90.6764 342.036L42.3965 308.035C36.0583 303.571 32.0779 296.481 31.5675 288.746L28.0963 236.137C27.2403 223.163 36.2244 211.599 49.0076 209.221L84.015 202.71C91.4483 201.328 97.8935 196.737 101.63 190.164L149.184 106.507C155.839 94.8005 170.411 90.2298 182.56 96.0388L221.522 114.669C227.914 117.726 235.286 118.003 241.889 115.435L396.654 55.259C413.883 48.56 432.329 61.7265 431.591 80.1972L429.927 121.896C429.725 126.948 428.035 131.828 425.069 135.923L398.61 172.455C393.697 179.238 385.782 183.197 377.407 183.059L354.474 182.682C342.312 182.482 331.681 190.848 329.017 202.716L326.604 213.464C326.222 215.165 326.014 216.901 325.984 218.644L325.468 248.67C325.403 252.491 326.191 256.277 327.776 259.754L335.273 276.201C337.334 280.72 338.038 285.74 337.301 290.651L333.15 318.318Z" fill="#FFB8B2"/>
</g>
<rect x="0.5" y="0.5" width="241" height="260" rx="49.5" stroke="#FFB8B2"/>
<defs>
<clipPath id="clip0_37_36">
<rect width="242" height="261" rx="50" fill="white"/>
</clipPath>
</defs>
</svg>
